<?xml version="1.0" encoding="utf-8"?>
<!-- Generator: Adobe Illustrator 21.0.1, SVG Export Plug-In . SVG Version: 6.00 Build 0)  -->
<svg version="1.1" id="Layer_1" xmlns="http://www.w3.org/2000/svg" xmlns:xlink="http://www.w3.org/1999/xlink" x="0px" y="0px"
	 width="115px" height="20px" viewBox="0 0 115 20" style="enable-background:new 0 0 115 20;" xml:space="preserve">
<style type="text/css">
	.st0{fill:#333333;}
	.st1{fill:#FFFFFF;}
	.st2{fill:#F35D0A;}
</style>
<path class="st0" d="M35,20H2c-1.1,0-2-0.9-2-2V2c0-1.1,0.9-2,2-2h33V20z"/>
<g>
	<g>
		<g>
			<path class="st1" d="M9.2,7.6c-1.5-1.5-4-1.5-5.5,0v5.6c1.5,1.5,4,1.5,5.5,0v-1.7H7.9v1.1c-0.7,0.7-2.4,0.7-3,0V8.2
				c0.7-0.7,2.3-0.7,3,0v1.1h1.3V7.6z"/>
		</g>
		<g>
			<path class="st1" d="M15.9,6.5h-4.6v7.8h4.6C17.2,12,17.2,8.8,15.9,6.5z M15,13h-2.5V7.7H15C15.8,9.1,15.8,11.6,15,13z"/>
		</g>
		<g>
			<path class="st1" d="M20.1,12.3h3v2h1.3V7.6c-1.5-1.5-4-1.5-5.5,0v6.7h1.3L20.1,12.3L20.1,12.3z M20.1,8.2c0.7-0.7,2.4-0.6,3,0
				V11h-3V8.2z"/>
		</g>
		<g>
			<path class="st1" d="M30.9,6.5h-4.6v7.8h1.3V12h3.3C32.4,10.5,32.4,8,30.9,6.5z M30.2,10.7h-2.6v-3h2.6
				C31,8.5,30.9,10.1,30.2,10.7z"/>
		</g>
	</g>
</g>
<path class="st2" d="M113,0H35v20h78c1.1,0,2-0.9,2-2V2C115,0.9,114.1,0,113,0z"/>
<g>
	<g>
		<path class="st1" d="M45.5,6.5V8h-4.1v1.7h3.8V11h-3.8v1.9h4.2v1.5h-6V6.5H45.5z"/>
		<path class="st1" d="M48,8.7v1.1h0c0.1-0.2,0.2-0.3,0.3-0.5c0.1-0.1,0.3-0.3,0.4-0.4s0.3-0.2,0.5-0.2s0.4-0.1,0.6-0.1
			c0.1,0,0.2,0,0.3,0.1v1.5c-0.1,0-0.2,0-0.3,0s-0.2,0-0.3,0c-0.3,0-0.5,0-0.7,0.1c-0.2,0.1-0.4,0.2-0.5,0.4s-0.2,0.4-0.3,0.6
			c-0.1,0.2-0.1,0.5-0.1,0.7v2.6h-1.6V8.7H48z"/>
		<path class="st1" d="M52.3,8.7v1.1h0c0.1-0.2,0.2-0.3,0.3-0.5c0.1-0.1,0.3-0.3,0.4-0.4s0.3-0.2,0.5-0.2s0.4-0.1,0.6-0.1
			c0.1,0,0.2,0,0.3,0.1v1.5c-0.1,0-0.2,0-0.3,0s-0.2,0-0.3,0c-0.3,0-0.5,0-0.7,0.1c-0.2,0.1-0.4,0.2-0.5,0.4s-0.2,0.4-0.3,0.6
			c-0.1,0.2-0.1,0.5-0.1,0.7v2.6h-1.6V8.7H52.3z"/>
		<path class="st1" d="M54.9,10.3c0.1-0.4,0.3-0.7,0.6-0.9s0.6-0.5,0.9-0.6s0.8-0.2,1.2-0.2c0.4,0,0.9,0.1,1.2,0.2s0.7,0.3,0.9,0.6
			s0.5,0.6,0.6,0.9c0.1,0.4,0.2,0.8,0.2,1.2c0,0.5-0.1,0.9-0.2,1.2c-0.1,0.4-0.3,0.7-0.6,0.9c-0.3,0.3-0.6,0.5-0.9,0.6
			c-0.4,0.1-0.8,0.2-1.2,0.2c-0.4,0-0.9-0.1-1.2-0.2c-0.4-0.1-0.7-0.3-0.9-0.6c-0.3-0.3-0.5-0.6-0.6-0.9c-0.1-0.4-0.2-0.8-0.2-1.2
			C54.7,11.1,54.8,10.7,54.9,10.3z M56.4,12.2c0,0.2,0.1,0.4,0.2,0.6c0.1,0.2,0.2,0.3,0.4,0.4c0.2,0.1,0.4,0.2,0.7,0.2
			c0.3,0,0.5-0.1,0.7-0.2s0.3-0.2,0.4-0.4c0.1-0.2,0.2-0.4,0.2-0.6c0-0.2,0.1-0.4,0.1-0.7s0-0.5-0.1-0.7s-0.1-0.4-0.2-0.6
			s-0.2-0.3-0.4-0.4s-0.4-0.2-0.7-0.2c-0.3,0-0.5,0.1-0.7,0.2c-0.2,0.1-0.3,0.2-0.4,0.4s-0.2,0.4-0.2,0.6s-0.1,0.4-0.1,0.7
			S56.3,12,56.4,12.2z"/>
		<path class="st1" d="M63.1,8.7v1.1h0c0.1-0.2,0.2-0.3,0.3-0.5c0.1-0.1,0.3-0.3,0.4-0.4s0.3-0.2,0.5-0.2s0.4-0.1,0.6-0.1
			c0.1,0,0.2,0,0.3,0.1v1.5c-0.1,0-0.2,0-0.3,0s-0.2,0-0.3,0c-0.3,0-0.5,0-0.7,0.1c-0.2,0.1-0.4,0.2-0.5,0.4s-0.2,0.4-0.3,0.6
			c-0.1,0.2-0.1,0.5-0.1,0.7v2.6h-1.6V8.7H63.1z"/>
		<path class="st1" d="M70.9,6.5v3H74v-3h1.7v7.9H74V11h-3.2v3.4h-1.7V6.5H70.9z"/>
		<path class="st1" d="M77.1,10.5c0-0.4,0.1-0.7,0.3-0.9c0.2-0.2,0.4-0.4,0.6-0.6c0.2-0.1,0.5-0.3,0.8-0.3c0.3-0.1,0.6-0.1,0.9-0.1
			c0.3,0,0.6,0,0.9,0.1c0.3,0,0.6,0.1,0.8,0.2s0.4,0.3,0.6,0.5c0.2,0.2,0.2,0.5,0.2,0.8v3c0,0.3,0,0.5,0,0.7c0,0.2,0.1,0.4,0.2,0.5
			h-1.6c0-0.1-0.1-0.2-0.1-0.3s0-0.2,0-0.3c-0.2,0.3-0.5,0.4-0.9,0.5c-0.3,0.1-0.7,0.2-1,0.2c-0.3,0-0.5,0-0.8-0.1
			c-0.2-0.1-0.4-0.2-0.6-0.3c-0.2-0.1-0.3-0.3-0.4-0.5c-0.1-0.2-0.1-0.5-0.1-0.8c0-0.3,0.1-0.6,0.2-0.8s0.3-0.4,0.4-0.5
			s0.4-0.2,0.6-0.3c0.2-0.1,0.5-0.1,0.7-0.1c0.2,0,0.5-0.1,0.7-0.1c0.2,0,0.4-0.1,0.6-0.1s0.3-0.1,0.4-0.2s0.2-0.2,0.1-0.4
			c0-0.2,0-0.3-0.1-0.4c-0.1-0.1-0.1-0.2-0.2-0.2c-0.1-0.1-0.2-0.1-0.3-0.1c-0.1,0-0.3,0-0.4,0c-0.3,0-0.5,0.1-0.7,0.2
			c-0.2,0.1-0.3,0.4-0.3,0.7H77.1z M80.7,11.6c-0.1,0.1-0.1,0.1-0.2,0.1c-0.1,0-0.2,0.1-0.3,0.1c-0.1,0-0.2,0-0.4,0.1
			s-0.2,0-0.4,0.1C79.2,12,79.1,12,79,12c-0.1,0-0.2,0.1-0.3,0.1c-0.1,0.1-0.2,0.1-0.2,0.2c-0.1,0.1-0.1,0.2-0.1,0.4
			c0,0.1,0,0.3,0.1,0.4c0.1,0.1,0.1,0.2,0.2,0.2c0.1,0.1,0.2,0.1,0.3,0.1c0.1,0,0.2,0,0.4,0c0.3,0,0.5-0.1,0.7-0.2s0.3-0.2,0.4-0.4
			c0.1-0.1,0.1-0.3,0.1-0.4s0-0.3,0-0.4V11.6z"/>
		<path class="st1" d="M84.9,8.7v0.8h0c0.2-0.3,0.5-0.6,0.8-0.7c0.3-0.1,0.6-0.2,1-0.2c0.4,0,0.8,0.1,1,0.2C88,8.8,88.2,9,88.4,9.2
			c0.2,0.2,0.3,0.4,0.3,0.7c0.1,0.3,0.1,0.6,0.1,1v3.5h-1.6v-3.2c0-0.5-0.1-0.8-0.2-1.1c-0.1-0.2-0.4-0.3-0.8-0.3
			c-0.4,0-0.7,0.1-0.9,0.4c-0.2,0.3-0.3,0.7-0.3,1.2v3h-1.6V8.7H84.9z"/>
		<path class="st1" d="M94,13.7c-0.2,0.3-0.4,0.5-0.7,0.7s-0.6,0.2-1,0.2c-0.4,0-0.8-0.1-1.1-0.2c-0.3-0.2-0.6-0.4-0.8-0.7
			s-0.4-0.6-0.5-1c-0.1-0.4-0.2-0.7-0.2-1.1c0-0.4,0.1-0.8,0.2-1.1s0.3-0.7,0.5-0.9s0.5-0.5,0.8-0.7c0.3-0.2,0.7-0.2,1.1-0.2
			c0.3,0,0.7,0.1,1,0.2c0.3,0.1,0.5,0.4,0.7,0.6h0V6.5h1.6v7.9H94L94,13.7L94,13.7z M93.9,10.9c0-0.2-0.1-0.4-0.2-0.6
			c-0.1-0.2-0.2-0.3-0.4-0.4c-0.2-0.1-0.4-0.2-0.6-0.2S92.2,9.8,92,9.9c-0.2,0.1-0.3,0.2-0.4,0.4c-0.1,0.2-0.2,0.4-0.2,0.6
			c0,0.2-0.1,0.4-0.1,0.7c0,0.2,0,0.4,0.1,0.7c0.1,0.2,0.1,0.4,0.2,0.6c0.1,0.2,0.3,0.3,0.4,0.4c0.2,0.1,0.4,0.2,0.6,0.2
			c0.3,0,0.5-0.1,0.6-0.2c0.2-0.1,0.3-0.2,0.4-0.4c0.1-0.2,0.2-0.4,0.2-0.6s0.1-0.4,0.1-0.7C94,11.3,94,11.1,93.9,10.9z"/>
		<path class="st1" d="M98.3,6.5v7.9h-1.6V6.5H98.3z"/>
		<path class="st1" d="M101.2,13c0.2,0.2,0.6,0.3,1,0.3c0.3,0,0.6-0.1,0.8-0.2c0.2-0.2,0.4-0.3,0.4-0.5h1.4c-0.2,0.7-0.6,1.2-1,1.5
			c-0.5,0.3-1,0.4-1.7,0.4c-0.4,0-0.9-0.1-1.2-0.2c-0.4-0.1-0.7-0.3-0.9-0.6c-0.2-0.3-0.4-0.6-0.6-0.9c-0.1-0.4-0.2-0.8-0.2-1.2
			c0-0.4,0.1-0.8,0.2-1.2c0.1-0.4,0.3-0.7,0.6-1s0.6-0.5,0.9-0.6c0.4-0.2,0.8-0.2,1.2-0.2c0.5,0,0.9,0.1,1.3,0.3s0.7,0.4,0.9,0.8
			c0.2,0.3,0.4,0.7,0.5,1.1s0.1,0.8,0.1,1.3h-4.1C100.8,12.4,101,12.8,101.2,13z M103,10c-0.2-0.2-0.5-0.3-0.9-0.3
			c-0.2,0-0.5,0-0.6,0.1c-0.2,0.1-0.3,0.2-0.4,0.3c-0.1,0.1-0.2,0.3-0.2,0.4c0,0.1-0.1,0.3-0.1,0.4h2.5
			C103.3,10.5,103.1,10.2,103,10z"/>
		<path class="st1" d="M107.3,8.7v1.1h0c0.1-0.2,0.2-0.3,0.3-0.5c0.1-0.1,0.3-0.3,0.4-0.4s0.3-0.2,0.5-0.2s0.4-0.1,0.6-0.1
			c0.1,0,0.2,0,0.3,0.1v1.5c-0.1,0-0.2,0-0.3,0s-0.2,0-0.3,0c-0.3,0-0.5,0-0.7,0.1c-0.2,0.1-0.4,0.2-0.5,0.4s-0.2,0.4-0.3,0.6
			c-0.1,0.2-0.1,0.5-0.1,0.7v2.6h-1.6V8.7H107.3z"/>
	</g>
</g>
</svg>
