<?xml version="1.0" encoding="utf-8"?>
<!-- Generator: Adobe Illustrator 21.0.1, SVG Export Plug-In . SVG Version: 6.00 Build 0)  -->
<svg version="1.1" id="Layer_1" xmlns="http://www.w3.org/2000/svg" xmlns:xlink="http://www.w3.org/1999/xlink" x="0px" y="0px"
	 width="77px" height="20px" viewBox="0 0 77 20" style="enable-background:new 0 0 77 20;" xml:space="preserve">
<style type="text/css">
	.st0{fill:#333333;}
	.st1{fill:#FFFFFF;}
	.st2{fill:#F35D0A;}
</style>
<path class="st0" d="M35,20H2c-1.1,0-2-0.9-2-2V2c0-1.1,0.9-2,2-2h33V20z"/>
<g>
	<g>
		<g>
			<path class="st1" d="M9.2,7.6c-1.5-1.5-4-1.5-5.5,0v5.6c1.5,1.5,4,1.5,5.5,0v-1.7H7.9v1.1c-0.7,0.7-2.4,0.7-3,0V8.2
				c0.7-0.7,2.3-0.7,3,0v1.1h1.3V7.6z"/>
		</g>
		<g>
			<path class="st1" d="M15.9,6.5h-4.6v7.8h4.6C17.2,12,17.2,8.8,15.9,6.5z M15,13h-2.5V7.7H15C15.8,9.1,15.8,11.6,15,13z"/>
		</g>
		<g>
			<path class="st1" d="M20.1,12.3h3v2h1.3V7.6c-1.5-1.5-4-1.5-5.5,0v6.7h1.3L20.1,12.3L20.1,12.3z M20.1,8.2c0.7-0.7,2.4-0.6,3,0
				V11h-3V8.2z"/>
		</g>
		<g>
			<path class="st1" d="M30.9,6.5h-4.6v7.8h1.3V12h3.3C32.4,10.5,32.4,8,30.9,6.5z M30.2,10.7h-2.6v-3h2.6
				C31,8.5,30.9,10.1,30.2,10.7z"/>
		</g>
	</g>
</g>
<path class="st2" d="M75,0H35v20h40c1.1,0,2-0.9,2-2V2C77,0.9,76.1,0,75,0z"/>
<g>
	<g>
		<path class="st1" d="M43.5,6.5l2.9,7.9h-1.8l-0.6-1.7h-2.9l-0.6,1.7h-1.7l3-7.9H43.5z M43.6,11.4l-1-2.9h0l-1,2.9H43.6z"/>
		<path class="st1" d="M49.7,9.7c-0.2,0-0.5,0.1-0.6,0.2c-0.2,0.1-0.3,0.3-0.4,0.4c-0.1,0.2-0.2,0.4-0.2,0.6c0,0.2-0.1,0.4-0.1,0.6
			c0,0.2,0,0.4,0.1,0.6c0,0.2,0.1,0.4,0.2,0.6c0.1,0.2,0.2,0.3,0.4,0.4c0.2,0.1,0.4,0.2,0.6,0.2c0.4,0,0.7-0.1,0.9-0.3
			c0.2-0.2,0.3-0.5,0.4-0.8h1.5c-0.1,0.8-0.4,1.3-0.9,1.7c-0.5,0.4-1.1,0.6-1.9,0.6c-0.4,0-0.8-0.1-1.2-0.2
			c-0.4-0.1-0.7-0.3-0.9-0.6s-0.4-0.6-0.6-0.9c-0.1-0.4-0.2-0.7-0.2-1.2c0-0.4,0.1-0.8,0.2-1.2s0.3-0.7,0.6-1
			c0.2-0.3,0.6-0.5,0.9-0.6c0.4-0.2,0.8-0.2,1.2-0.2c0.3,0,0.7,0,1,0.1c0.3,0.1,0.6,0.2,0.8,0.4c0.2,0.2,0.4,0.4,0.6,0.7
			c0.2,0.3,0.2,0.6,0.3,1h-1.5C50.7,10.1,50.3,9.7,49.7,9.7z"/>
		<path class="st1" d="M56.4,8.7v1h-1.1v2.8c0,0.3,0,0.4,0.1,0.5s0.3,0.1,0.5,0.1c0.1,0,0.2,0,0.3,0c0.1,0,0.2,0,0.2,0v1.2
			c-0.1,0-0.3,0-0.4,0c-0.2,0-0.3,0-0.5,0c-0.2,0-0.5,0-0.7,0c-0.2,0-0.4-0.1-0.6-0.2c-0.2-0.1-0.3-0.2-0.4-0.4
			c-0.1-0.2-0.1-0.4-0.1-0.7V9.8h-0.9v-1h0.9V7h1.6v1.7H56.4z"/>
		<path class="st1" d="M57.2,7.8V6.5h1.6v1.3H57.2z M58.8,8.7v5.7h-1.6V8.7H58.8z"/>
		<path class="st1" d="M60,10.3c0.1-0.4,0.3-0.7,0.6-0.9s0.6-0.5,0.9-0.6s0.8-0.2,1.2-0.2c0.4,0,0.9,0.1,1.2,0.2s0.7,0.3,0.9,0.6
			s0.5,0.6,0.6,0.9c0.1,0.4,0.2,0.8,0.2,1.2c0,0.5-0.1,0.9-0.2,1.2c-0.1,0.4-0.3,0.7-0.6,0.9c-0.3,0.3-0.6,0.5-0.9,0.6
			c-0.4,0.1-0.8,0.2-1.2,0.2c-0.4,0-0.9-0.1-1.2-0.2c-0.4-0.1-0.7-0.3-0.9-0.6c-0.3-0.3-0.5-0.6-0.6-0.9c-0.1-0.4-0.2-0.8-0.2-1.2
			C59.8,11.1,59.9,10.7,60,10.3z M61.4,12.2c0,0.2,0.1,0.4,0.2,0.6c0.1,0.2,0.2,0.3,0.4,0.4c0.2,0.1,0.4,0.2,0.7,0.2
			c0.3,0,0.5-0.1,0.7-0.2s0.3-0.2,0.4-0.4c0.1-0.2,0.2-0.4,0.2-0.6c0-0.2,0.1-0.4,0.1-0.7s0-0.5-0.1-0.7s-0.1-0.4-0.2-0.6
			s-0.2-0.3-0.4-0.4S63,9.7,62.7,9.7c-0.3,0-0.5,0.1-0.7,0.2c-0.2,0.1-0.3,0.2-0.4,0.4s-0.2,0.4-0.2,0.6s-0.1,0.4-0.1,0.7
			S61.4,12,61.4,12.2z"/>
		<path class="st1" d="M68.2,8.7v0.8h0c0.2-0.3,0.5-0.6,0.8-0.7c0.3-0.1,0.6-0.2,1-0.2c0.4,0,0.8,0.1,1,0.2c0.3,0.1,0.5,0.3,0.6,0.5
			c0.2,0.2,0.3,0.4,0.3,0.7c0.1,0.3,0.1,0.6,0.1,1v3.5h-1.6v-3.2c0-0.5-0.1-0.8-0.2-1.1c-0.1-0.2-0.4-0.3-0.8-0.3
			c-0.4,0-0.7,0.1-0.9,0.4c-0.2,0.3-0.3,0.7-0.3,1.2v3h-1.6V8.7H68.2z"/>
	</g>
</g>
</svg>
