<?xml version="1.0" encoding="utf-8"?>
<!-- Generator: Adobe Illustrator 21.0.1, SVG Export Plug-In . SVG Version: 6.00 Build 0)  -->
<svg version="1.1" id="Layer_1" xmlns="http://www.w3.org/2000/svg" xmlns:xlink="http://www.w3.org/1999/xlink" x="0px" y="0px"
	 width="125px" height="20px" viewBox="0 0 125 20" style="enable-background:new 0 0 125 20;" xml:space="preserve">
<style type="text/css">
	.st0{fill:#333333;}
	.st1{fill:#FFFFFF;}
	.st2{fill:#F35D0A;}
</style>
<path class="st0" d="M35,20H2c-1.1,0-2-0.9-2-2V2c0-1.1,0.9-2,2-2h33V20z"/>
<g>
	<g>
		<g>
			<path class="st1" d="M9.2,7.6c-1.5-1.5-4-1.5-5.5,0v5.6c1.5,1.5,4,1.5,5.5,0v-1.7H7.9v1.1c-0.7,0.7-2.4,0.7-3,0V8.2
				c0.7-0.7,2.3-0.7,3,0v1.1h1.3V7.6z"/>
		</g>
		<g>
			<path class="st1" d="M15.9,6.5h-4.6v7.8h4.6C17.2,12,17.2,8.8,15.9,6.5z M15,13h-2.5V7.7H15C15.8,9.1,15.8,11.6,15,13z"/>
		</g>
		<g>
			<path class="st1" d="M20.1,12.3h3v2h1.3V7.6c-1.5-1.5-4-1.5-5.5,0v6.7h1.3L20.1,12.3L20.1,12.3z M20.1,8.2c0.7-0.7,2.4-0.6,3,0
				V11h-3V8.2z"/>
		</g>
		<g>
			<path class="st1" d="M30.9,6.5h-4.6v7.8h1.3V12h3.3C32.4,10.5,32.4,8,30.9,6.5z M30.2,10.7h-2.6v-3h2.6
				C31,8.5,30.9,10.1,30.2,10.7z"/>
		</g>
	</g>
</g>
<path class="st2" d="M123,0H35v20h88c1.1,0,2-0.9,2-2V2C125,0.9,124.1,0,123,0z"/>
<g>
	<g>
		<path class="st1" d="M40.9,12.5c0.1,0.2,0.2,0.3,0.4,0.4c0.2,0.1,0.3,0.2,0.6,0.3c0.2,0.1,0.4,0.1,0.7,0.1c0.2,0,0.3,0,0.5,0
			s0.3-0.1,0.5-0.1s0.3-0.2,0.4-0.3c0.1-0.1,0.2-0.3,0.2-0.5c0-0.2-0.1-0.4-0.2-0.5c-0.1-0.1-0.3-0.2-0.5-0.3s-0.5-0.2-0.7-0.2
			C42.3,11.1,42,11,41.7,11c-0.3-0.1-0.6-0.2-0.9-0.3c-0.3-0.1-0.5-0.2-0.7-0.4c-0.2-0.2-0.4-0.4-0.5-0.6s-0.2-0.6-0.2-0.9
			c0-0.4,0.1-0.8,0.3-1.1c0.2-0.3,0.4-0.5,0.7-0.7c0.3-0.2,0.6-0.3,0.9-0.4c0.4-0.1,0.7-0.1,1.1-0.1c0.4,0,0.8,0,1.2,0.1
			s0.7,0.2,1,0.4c0.3,0.2,0.5,0.5,0.7,0.8c0.2,0.3,0.3,0.7,0.3,1.2h-1.7c0-0.2-0.1-0.4-0.1-0.6c-0.1-0.2-0.2-0.3-0.3-0.4
			c-0.1-0.1-0.3-0.2-0.5-0.2s-0.4-0.1-0.6-0.1c-0.1,0-0.3,0-0.4,0c-0.1,0-0.3,0.1-0.4,0.2c-0.1,0.1-0.2,0.2-0.3,0.3S41,8.4,41,8.6
			c0,0.2,0,0.3,0.1,0.4c0.1,0.1,0.2,0.2,0.3,0.3c0.2,0.1,0.4,0.2,0.7,0.2c0.3,0.1,0.7,0.2,1.2,0.3c0.1,0,0.4,0.1,0.6,0.2
			c0.3,0.1,0.5,0.2,0.8,0.4s0.5,0.4,0.7,0.7c0.2,0.3,0.3,0.6,0.3,1.1c0,0.4-0.1,0.7-0.2,1s-0.3,0.6-0.6,0.8c-0.3,0.2-0.6,0.4-1,0.5
			c-0.4,0.1-0.9,0.2-1.4,0.2c-0.4,0-0.9-0.1-1.3-0.2s-0.8-0.3-1.1-0.5c-0.3-0.2-0.6-0.5-0.7-0.9c-0.2-0.4-0.3-0.8-0.3-1.3h1.7
			C40.8,12.1,40.8,12.3,40.9,12.5z"/>
		<path class="st1" d="M48.1,8.7v0.7h0c0.2-0.3,0.4-0.5,0.7-0.7c0.3-0.1,0.6-0.2,1-0.2c0.4,0,0.8,0.1,1.2,0.3
			c0.3,0.2,0.6,0.4,0.8,0.7s0.4,0.6,0.5,1s0.2,0.8,0.2,1.2c0,0.4-0.1,0.7-0.2,1.1c-0.1,0.4-0.3,0.7-0.5,0.9s-0.5,0.5-0.8,0.6
			s-0.7,0.2-1.1,0.2c-0.4,0-0.7-0.1-1-0.2c-0.3-0.1-0.5-0.4-0.7-0.6h0v2.7h-1.6V8.7H48.1z M50.1,13.2c0.2-0.1,0.3-0.2,0.4-0.4
			s0.2-0.4,0.2-0.6c0-0.2,0.1-0.4,0.1-0.7c0-0.2,0-0.5-0.1-0.7c0-0.2-0.1-0.4-0.2-0.6c-0.1-0.2-0.3-0.3-0.4-0.4
			c-0.2-0.1-0.4-0.2-0.6-0.2c-0.3,0-0.5,0.1-0.6,0.2c-0.2,0.1-0.3,0.2-0.4,0.4s-0.2,0.4-0.2,0.6s-0.1,0.4-0.1,0.7
			c0,0.2,0,0.5,0.1,0.7c0,0.2,0.1,0.4,0.2,0.6s0.2,0.3,0.4,0.4s0.4,0.2,0.6,0.2C49.7,13.4,49.9,13.3,50.1,13.2z"/>
		<path class="st1" d="M53.2,10.5c0-0.4,0.1-0.7,0.3-0.9c0.2-0.2,0.4-0.4,0.6-0.6c0.2-0.1,0.5-0.3,0.8-0.3c0.3-0.1,0.6-0.1,0.9-0.1
			c0.3,0,0.6,0,0.9,0.1c0.3,0,0.6,0.1,0.8,0.2s0.4,0.3,0.6,0.5c0.2,0.2,0.2,0.5,0.2,0.8v3c0,0.3,0,0.5,0,0.7c0,0.2,0.1,0.4,0.2,0.5
			H57c0-0.1-0.1-0.2-0.1-0.3s0-0.2,0-0.3c-0.2,0.3-0.5,0.4-0.9,0.5c-0.3,0.1-0.7,0.2-1,0.2c-0.3,0-0.5,0-0.8-0.1
			c-0.2-0.1-0.4-0.2-0.6-0.3c-0.2-0.1-0.3-0.3-0.4-0.5c-0.1-0.2-0.1-0.5-0.1-0.8c0-0.3,0.1-0.6,0.2-0.8s0.3-0.4,0.4-0.5
			s0.4-0.2,0.6-0.3c0.2-0.1,0.5-0.1,0.7-0.1c0.2,0,0.5-0.1,0.7-0.1c0.2,0,0.4-0.1,0.6-0.1s0.3-0.1,0.4-0.2s0.2-0.2,0.1-0.4
			c0-0.2,0-0.3-0.1-0.4c-0.1-0.1-0.1-0.2-0.2-0.2c-0.1-0.1-0.2-0.1-0.3-0.1c-0.1,0-0.3,0-0.4,0c-0.3,0-0.5,0.1-0.7,0.2
			c-0.2,0.1-0.3,0.4-0.3,0.7H53.2z M56.8,11.6c-0.1,0.1-0.1,0.1-0.2,0.1c-0.1,0-0.2,0.1-0.3,0.1c-0.1,0-0.2,0-0.4,0.1
			s-0.2,0-0.4,0.1c-0.1,0-0.2,0.1-0.3,0.1c-0.1,0-0.2,0.1-0.3,0.1c-0.1,0.1-0.2,0.1-0.2,0.2c-0.1,0.1-0.1,0.2-0.1,0.4
			c0,0.1,0,0.3,0.1,0.4c0.1,0.1,0.1,0.2,0.2,0.2c0.1,0.1,0.2,0.1,0.3,0.1c0.1,0,0.2,0,0.4,0c0.3,0,0.5-0.1,0.7-0.2s0.3-0.2,0.4-0.4
			c0.1-0.1,0.1-0.3,0.1-0.4s0-0.3,0-0.4V11.6z"/>
		<path class="st1" d="M61.1,8.7v1.1h0c0.1-0.2,0.2-0.3,0.3-0.5c0.1-0.1,0.3-0.3,0.4-0.4s0.3-0.2,0.5-0.2s0.4-0.1,0.6-0.1
			c0.1,0,0.2,0,0.3,0.1v1.5c-0.1,0-0.2,0-0.3,0s-0.2,0-0.3,0c-0.3,0-0.5,0-0.7,0.1c-0.2,0.1-0.4,0.2-0.5,0.4s-0.2,0.4-0.3,0.6
			c-0.1,0.2-0.1,0.5-0.1,0.7v2.6h-1.6V8.7H61.1z"/>
		<path class="st1" d="M65.6,6.5v4.2l2-2h1.8l-2.1,2.1l2.4,3.6h-1.9l-1.6-2.5l-0.6,0.6v2H64V6.5H65.6z"/>
		<path class="st1" d="M78.5,8.6c-0.1-0.2-0.2-0.3-0.4-0.4S77.7,8,77.5,7.9s-0.4-0.1-0.6-0.1c-0.4,0-0.7,0.1-1,0.2s-0.5,0.4-0.7,0.6
			c-0.2,0.3-0.3,0.5-0.4,0.9s-0.1,0.7-0.1,1c0,0.3,0,0.7,0.1,1c0.1,0.3,0.2,0.6,0.4,0.8s0.4,0.4,0.7,0.6s0.6,0.2,1,0.2
			c0.5,0,0.9-0.2,1.2-0.5c0.3-0.3,0.5-0.7,0.5-1.3h1.7c0,0.5-0.2,0.9-0.3,1.3c-0.2,0.4-0.4,0.7-0.7,1c-0.3,0.3-0.7,0.5-1.1,0.6
			s-0.8,0.2-1.3,0.2c-0.6,0-1.1-0.1-1.6-0.3s-0.9-0.5-1.2-0.9c-0.3-0.4-0.6-0.8-0.8-1.3c-0.2-0.5-0.3-1-0.3-1.6
			c0-0.6,0.1-1.1,0.3-1.6c0.2-0.5,0.4-0.9,0.8-1.3s0.7-0.7,1.2-0.9c0.5-0.2,1-0.3,1.6-0.3c0.4,0,0.8,0.1,1.2,0.2
			c0.4,0.1,0.7,0.3,1,0.5C79.5,7.3,79.8,7.6,80,8s0.3,0.8,0.4,1.2h-1.7C78.6,9,78.6,8.8,78.5,8.6z"/>
		<path class="st1" d="M81.4,10.3c0.1-0.4,0.3-0.7,0.6-0.9s0.6-0.5,0.9-0.6s0.8-0.2,1.2-0.2c0.4,0,0.9,0.1,1.2,0.2s0.7,0.3,0.9,0.6
			s0.5,0.6,0.6,0.9c0.1,0.4,0.2,0.8,0.2,1.2c0,0.5-0.1,0.9-0.2,1.2c-0.1,0.4-0.3,0.7-0.6,0.9c-0.3,0.3-0.6,0.5-0.9,0.6
			c-0.4,0.1-0.8,0.2-1.2,0.2c-0.4,0-0.9-0.1-1.2-0.2c-0.4-0.1-0.7-0.3-0.9-0.6c-0.3-0.3-0.5-0.6-0.6-0.9c-0.1-0.4-0.2-0.8-0.2-1.2
			C81.2,11.1,81.3,10.7,81.4,10.3z M82.9,12.2c0,0.2,0.1,0.4,0.2,0.6c0.1,0.2,0.2,0.3,0.4,0.4c0.2,0.1,0.4,0.2,0.7,0.2
			c0.3,0,0.5-0.1,0.7-0.2s0.3-0.2,0.4-0.4c0.1-0.2,0.2-0.4,0.2-0.6c0-0.2,0.1-0.4,0.1-0.7s0-0.5-0.1-0.7s-0.1-0.4-0.2-0.6
			S85,10,84.8,9.9s-0.4-0.2-0.7-0.2c-0.3,0-0.5,0.1-0.7,0.2c-0.2,0.1-0.3,0.2-0.4,0.4s-0.2,0.4-0.2,0.6s-0.1,0.4-0.1,0.7
			S82.8,12,82.9,12.2z"/>
		<path class="st1" d="M89.6,8.7v0.8h0c0.2-0.3,0.5-0.5,0.7-0.7c0.3-0.2,0.6-0.2,1-0.2c0.4,0,0.7,0.1,1,0.2s0.5,0.4,0.7,0.7
			c0.2-0.2,0.4-0.5,0.7-0.7c0.3-0.2,0.6-0.3,1-0.3c0.3,0,0.6,0,0.8,0.1s0.5,0.2,0.7,0.4c0.2,0.2,0.3,0.4,0.4,0.6s0.2,0.6,0.2,0.9
			v3.8h-1.6v-3.2c0-0.2,0-0.4,0-0.5s-0.1-0.3-0.1-0.4c-0.1-0.1-0.2-0.2-0.3-0.3c-0.1-0.1-0.3-0.1-0.5-0.1c-0.2,0-0.4,0-0.5,0.1
			s-0.2,0.2-0.3,0.3c-0.1,0.1-0.1,0.3-0.2,0.5c0,0.2,0,0.3,0,0.5v3.2h-1.6v-3.2c0-0.2,0-0.3,0-0.5c0-0.2,0-0.3-0.1-0.5
			c-0.1-0.1-0.1-0.3-0.3-0.3c-0.1-0.1-0.3-0.1-0.6-0.1c-0.1,0-0.2,0-0.3,0c-0.1,0-0.2,0.1-0.4,0.2c-0.1,0.1-0.2,0.2-0.3,0.4
			c-0.1,0.2-0.1,0.4-0.1,0.7v3.3h-1.6V8.7H89.6z"/>
		<path class="st1" d="M99.6,8.7v0.7h0c0.2-0.3,0.4-0.5,0.7-0.7c0.3-0.1,0.6-0.2,1-0.2c0.4,0,0.8,0.1,1.2,0.3
			c0.3,0.2,0.6,0.4,0.8,0.7s0.4,0.6,0.5,1s0.2,0.8,0.2,1.2c0,0.4-0.1,0.7-0.2,1.1c-0.1,0.4-0.3,0.7-0.5,0.9s-0.5,0.5-0.8,0.6
			s-0.7,0.2-1.1,0.2c-0.4,0-0.7-0.1-1-0.2c-0.3-0.1-0.5-0.4-0.7-0.6h0v2.7h-1.6V8.7H99.6z M101.6,13.2c0.2-0.1,0.3-0.2,0.4-0.4
			s0.2-0.4,0.2-0.6c0-0.2,0.1-0.4,0.1-0.7c0-0.2,0-0.5-0.1-0.7c0-0.2-0.1-0.4-0.2-0.6c-0.1-0.2-0.3-0.3-0.4-0.4
			c-0.2-0.1-0.4-0.2-0.6-0.2c-0.3,0-0.5,0.1-0.6,0.2c-0.2,0.1-0.3,0.2-0.4,0.4s-0.2,0.4-0.2,0.6s-0.1,0.4-0.1,0.7
			c0,0.2,0,0.5,0.1,0.7c0,0.2,0.1,0.4,0.2,0.6s0.2,0.3,0.4,0.4s0.4,0.2,0.6,0.2C101.2,13.4,101.4,13.3,101.6,13.2z"/>
		<path class="st1" d="M108.7,14.4v-0.8h0c-0.2,0.3-0.5,0.6-0.8,0.7s-0.6,0.2-1,0.2c-0.4,0-0.8-0.1-1-0.2c-0.3-0.1-0.5-0.3-0.6-0.5
			c-0.2-0.2-0.3-0.4-0.3-0.7c-0.1-0.3-0.1-0.6-0.1-1V8.7h1.6v3.2c0,0.5,0.1,0.8,0.2,1c0.1,0.2,0.4,0.3,0.8,0.3
			c0.4,0,0.7-0.1,0.9-0.4c0.2-0.3,0.3-0.7,0.3-1.2v-3h1.6v5.7H108.7z"/>
		<path class="st1" d="M114.5,8.7v1h-1.1v2.8c0,0.3,0,0.4,0.1,0.5s0.3,0.1,0.5,0.1c0.1,0,0.2,0,0.3,0c0.1,0,0.2,0,0.2,0v1.2
			c-0.1,0-0.3,0-0.4,0c-0.2,0-0.3,0-0.5,0c-0.2,0-0.5,0-0.7,0c-0.2,0-0.4-0.1-0.6-0.2c-0.2-0.1-0.3-0.2-0.4-0.4
			c-0.1-0.2-0.1-0.4-0.1-0.7V9.8h-0.9v-1h0.9V7h1.6v1.7H114.5z"/>
		<path class="st1" d="M116.9,13c0.2,0.2,0.6,0.3,1,0.3c0.3,0,0.6-0.1,0.8-0.2c0.2-0.2,0.4-0.3,0.4-0.5h1.4c-0.2,0.7-0.6,1.2-1,1.5
			c-0.5,0.3-1,0.4-1.7,0.4c-0.4,0-0.9-0.1-1.2-0.2c-0.4-0.1-0.7-0.3-0.9-0.6c-0.2-0.3-0.4-0.6-0.6-0.9c-0.1-0.4-0.2-0.8-0.2-1.2
			c0-0.4,0.1-0.8,0.2-1.2c0.1-0.4,0.3-0.7,0.6-1s0.6-0.5,0.9-0.6c0.4-0.2,0.8-0.2,1.2-0.2c0.5,0,0.9,0.1,1.3,0.3s0.7,0.4,0.9,0.8
			c0.2,0.3,0.4,0.7,0.5,1.1s0.1,0.8,0.1,1.3h-4.1C116.5,12.4,116.6,12.8,116.9,13z M118.6,10c-0.2-0.2-0.5-0.3-0.9-0.3
			c-0.2,0-0.5,0-0.6,0.1c-0.2,0.1-0.3,0.2-0.4,0.3c-0.1,0.1-0.2,0.3-0.2,0.4c0,0.1-0.1,0.3-0.1,0.4h2.5
			C119,10.5,118.8,10.2,118.6,10z"/>
	</g>
</g>
</svg>
