<?xml version="1.0" encoding="utf-8"?>
<!-- Generator: Adobe Illustrator 21.0.1, SVG Export Plug-In . SVG Version: 6.00 Build 0)  -->
<svg version="1.1" id="Layer_1" xmlns="http://www.w3.org/2000/svg" xmlns:xlink="http://www.w3.org/1999/xlink" x="0px" y="0px"
	 width="122px" height="20px" viewBox="0 0 122 20" style="enable-background:new 0 0 122 20;" xml:space="preserve">
<style type="text/css">
	.st0{fill:#333333;}
	.st1{fill:#F35D0A;}
	.st2{fill:#FFFFFF;}
</style>
<path class="st0" d="M65,20H2c-1.1,0-2-0.9-2-2V2c0-1.1,0.9-2,2-2h63V20z"/>
<path class="st1" d="M120,0H65v20h55c1.1,0,2-0.9,2-2V2C122,0.9,121.1,0,120,0z"/>
<g>
	<path class="st2" d="M7.6,14.3c-1.1,0-2-0.3-2.6-0.9c-0.6-0.6-0.9-1.5-0.9-2.7c0-0.6,0.1-1.1,0.3-1.5S4.9,8.3,5.2,8
		c0.3-0.3,0.7-0.5,1.1-0.7C6.7,7.1,7.2,7,7.7,7C8,7,8.3,7,8.5,7.1c0.2,0,0.5,0.1,0.6,0.2c0.2,0.1,0.3,0.1,0.4,0.2
		c0.1,0.1,0.2,0.1,0.3,0.1L9.4,8.8C9.2,8.7,9,8.6,8.7,8.5s-0.6-0.1-1-0.1c-0.2,0-0.5,0-0.7,0.1S6.6,8.7,6.4,8.9
		C6.2,9.1,6.1,9.3,6,9.6s-0.2,0.6-0.2,1c0,0.3,0,0.6,0.1,0.9C6,11.8,6.1,12,6.2,12.2c0.2,0.2,0.4,0.4,0.6,0.5
		c0.3,0.1,0.6,0.2,0.9,0.2c0.2,0,0.4,0,0.6,0c0.2,0,0.3-0.1,0.5-0.1c0.1,0,0.3-0.1,0.4-0.1c0.1,0,0.2-0.1,0.3-0.1l0.4,1.2
		C9.7,13.9,9.4,14,9,14.1C8.6,14.2,8.2,14.3,7.6,14.3z"/>
	<path class="st2" d="M12.6,8.7c0.4,0,0.8,0.1,1.1,0.2s0.5,0.2,0.7,0.4s0.3,0.4,0.4,0.7s0.1,0.6,0.1,0.9V14c-0.2,0-0.5,0.1-0.9,0.2
		c-0.4,0.1-0.8,0.1-1.4,0.1c-0.3,0-0.6,0-0.9-0.1c-0.3-0.1-0.5-0.2-0.7-0.3s-0.4-0.3-0.5-0.5s-0.2-0.5-0.2-0.8s0.1-0.6,0.2-0.8
		c0.1-0.2,0.3-0.4,0.5-0.5s0.4-0.2,0.7-0.3s0.5-0.1,0.8-0.1c0.2,0,0.4,0,0.5,0s0.3,0,0.4,0.1v-0.1c0-0.3-0.1-0.5-0.2-0.6
		C13.1,10,12.8,10,12.4,10c-0.3,0-0.5,0-0.8,0.1c-0.2,0-0.5,0.1-0.6,0.2L10.9,9c0.1,0,0.2-0.1,0.3-0.1s0.3-0.1,0.4-0.1
		c0.2,0,0.3,0,0.5-0.1C12.3,8.7,12.4,8.7,12.6,8.7z M12.7,13.1c0.1,0,0.3,0,0.4,0s0.2,0,0.3,0V12c-0.1,0-0.2,0-0.3,0s-0.2,0-0.3,0
		s-0.3,0-0.4,0c-0.1,0-0.2,0-0.3,0.1c-0.1,0-0.2,0.1-0.2,0.2c-0.1,0.1-0.1,0.2-0.1,0.3c0,0.2,0.1,0.4,0.2,0.5S12.4,13.1,12.7,13.1z"
		/>
	<path class="st2" d="M17.5,13c0.3,0,0.5,0,0.6-0.1s0.2-0.2,0.2-0.3s-0.1-0.2-0.2-0.3s-0.4-0.2-0.7-0.3c-0.2-0.1-0.4-0.2-0.6-0.3
		s-0.4-0.2-0.5-0.3s-0.2-0.3-0.3-0.5c-0.1-0.2-0.1-0.4-0.1-0.6c0-0.5,0.2-0.9,0.6-1.2s0.9-0.4,1.5-0.4c0.3,0,0.6,0,0.9,0.1
		s0.5,0.1,0.7,0.2l-0.3,1.2c-0.2-0.1-0.4-0.1-0.6-0.2c-0.2,0-0.4-0.1-0.7-0.1c-0.5,0-0.7,0.1-0.7,0.4c0,0.1,0,0.1,0,0.2l0.1,0.1
		c0.1,0,0.1,0.1,0.2,0.1s0.2,0.1,0.4,0.2c0.3,0.1,0.6,0.2,0.8,0.4c0.2,0.1,0.4,0.2,0.5,0.4c0.1,0.1,0.2,0.3,0.3,0.5
		c0,0.2,0.1,0.4,0.1,0.6c0,0.5-0.2,0.9-0.6,1.2s-0.9,0.4-1.7,0.4c-0.5,0-0.9,0-1.2-0.1c-0.3-0.1-0.5-0.1-0.6-0.2l0.2-1.2
		c0.3,0.1,0.5,0.2,0.8,0.2S17.2,13,17.5,13z"/>
	<path class="st2" d="M22.1,10.7c0.1-0.2,0.3-0.3,0.5-0.5s0.3-0.3,0.5-0.5s0.3-0.3,0.4-0.5s0.2-0.3,0.3-0.4h1.8
		c-0.4,0.4-0.7,0.8-1,1.2s-0.7,0.8-1.1,1.1c0.2,0.2,0.4,0.4,0.6,0.6c0.2,0.2,0.4,0.5,0.6,0.8s0.4,0.5,0.5,0.8
		c0.2,0.3,0.3,0.5,0.4,0.7h-1.7c-0.1-0.2-0.2-0.4-0.4-0.6c-0.1-0.2-0.3-0.4-0.4-0.6c-0.2-0.2-0.3-0.4-0.5-0.6
		c-0.2-0.2-0.3-0.4-0.5-0.5V14h-1.5V6.6l1.5-0.2C22.1,6.4,22.1,10.7,22.1,10.7z"/>
	<path class="st2" d="M30.2,7.2c0.1,0.2,0.3,0.5,0.4,0.8s0.3,0.7,0.5,1c0.2,0.4,0.3,0.8,0.5,1.2s0.3,0.8,0.5,1.1
		c0.1-0.3,0.3-0.7,0.5-1.1s0.3-0.8,0.5-1.2s0.3-0.7,0.5-1s0.3-0.6,0.4-0.8h1.4c0.1,0.5,0.1,1,0.2,1.5c0.1,0.6,0.1,1.2,0.2,1.8
		c0,0.6,0.1,1.2,0.1,1.9c0,0.6,0.1,1.2,0.1,1.8h-1.5c0-0.7,0-1.4-0.1-2.2c0-0.8-0.1-1.6-0.2-2.4c-0.1,0.3-0.3,0.6-0.4,0.9
		c-0.1,0.3-0.3,0.7-0.4,1c-0.1,0.3-0.3,0.7-0.4,1c-0.1,0.3-0.2,0.6-0.3,0.8h-1.1c-0.1-0.2-0.2-0.5-0.3-0.8c-0.1-0.3-0.3-0.6-0.4-1
		c-0.1-0.3-0.3-0.7-0.4-1s-0.3-0.7-0.4-0.9C30,10.4,30,11.2,30,12c0,0.8-0.1,1.5-0.1,2.2h-1.5c0-0.5,0.1-1.1,0.1-1.8
		s0.1-1.2,0.1-1.9c0-0.6,0.1-1.2,0.1-1.8c0.1-0.6,0.1-1.1,0.2-1.5H30.2z"/>
	<path class="st2" d="M38.9,8.7c0.4,0,0.8,0.1,1.1,0.2c0.3,0.1,0.5,0.2,0.7,0.4S41,9.7,41.1,10c0.1,0.3,0.1,0.6,0.1,0.9V14
		c-0.2,0-0.5,0.1-0.9,0.2c-0.4,0.1-0.8,0.1-1.4,0.1c-0.3,0-0.6,0-0.9-0.1c-0.3-0.1-0.5-0.2-0.7-0.3s-0.4-0.3-0.5-0.5
		s-0.2-0.5-0.2-0.8s0.1-0.6,0.2-0.8c0.1-0.2,0.3-0.4,0.5-0.5s0.4-0.2,0.7-0.3s0.5-0.1,0.8-0.1c0.2,0,0.4,0,0.5,0s0.3,0,0.4,0.1v-0.1
		c0-0.3-0.1-0.5-0.2-0.6S39.1,10,38.7,10c-0.3,0-0.5,0-0.8,0.1c-0.2,0-0.5,0.1-0.6,0.2L37.1,9c0.1,0,0.2-0.1,0.3-0.1
		s0.3-0.1,0.4-0.1c0.2,0,0.3,0,0.5-0.1S38.7,8.7,38.9,8.7z M39,13.1c0.1,0,0.3,0,0.4,0s0.2,0,0.3,0V12c-0.1,0-0.2,0-0.3,0
		s-0.2,0-0.3,0s-0.3,0-0.4,0s-0.2,0-0.3,0.1c-0.1,0-0.2,0.1-0.2,0.2c-0.1,0.1-0.1,0.2-0.1,0.3c0,0.2,0.1,0.4,0.2,0.5
		C38.5,13,38.7,13.1,39,13.1z"/>
	<path class="st2" d="M45.5,10.2c-0.1,0-0.3-0.1-0.5-0.1S44.6,10,44.4,10c-0.1,0-0.2,0-0.3,0s-0.2,0-0.3,0.1v4h-1.5v-5
		C42.5,9,42.9,9,43.2,8.9c0.4-0.1,0.8-0.1,1.2-0.1c0.1,0,0.2,0,0.3,0s0.2,0,0.3,0s0.2,0,0.3,0.1S45.5,9,45.6,9L45.5,10.2z"/>
	<path class="st2" d="M47.7,10.7c0.1-0.2,0.3-0.3,0.5-0.5s0.3-0.3,0.5-0.5c0.1-0.2,0.3-0.3,0.4-0.5s0.2-0.3,0.3-0.4h1.8
		c-0.4,0.4-0.7,0.8-1,1.2s-0.7,0.8-1.1,1.1c0.2,0.2,0.4,0.4,0.6,0.6c0.2,0.2,0.4,0.5,0.6,0.8c0.2,0.3,0.4,0.5,0.5,0.8
		c0.2,0.3,0.3,0.5,0.4,0.7h-1.7c-0.1-0.2-0.2-0.4-0.4-0.6c-0.1-0.2-0.3-0.4-0.4-0.6c-0.2-0.2-0.3-0.4-0.5-0.6
		c-0.2-0.2-0.3-0.4-0.5-0.5V14h-1.5V6.6l1.5-0.2C47.7,6.4,47.7,10.7,47.7,10.7z"/>
	<path class="st2" d="M51.2,11.5c0-0.5,0.1-0.9,0.2-1.2c0.1-0.3,0.3-0.6,0.6-0.9c0.2-0.2,0.5-0.4,0.8-0.5s0.6-0.2,0.9-0.2
		c0.7,0,1.3,0.2,1.8,0.7c0.4,0.5,0.6,1.1,0.6,2c0,0.1,0,0.2,0,0.3s0,0.2,0,0.3h-3.4c0,0.3,0.2,0.5,0.4,0.7c0.3,0.2,0.6,0.3,1,0.3
		c0.3,0,0.5,0,0.8-0.1c0.3,0,0.5-0.1,0.6-0.2l0.2,1.2c-0.1,0-0.2,0.1-0.3,0.1s-0.3,0.1-0.4,0.1c-0.2,0-0.3,0.1-0.5,0.1s-0.4,0-0.6,0
		c-0.5,0-0.9-0.1-1.2-0.2c-0.4-0.1-0.6-0.3-0.9-0.6c-0.2-0.2-0.4-0.5-0.5-0.9C51.2,12.3,51.2,11.9,51.2,11.5z M54.7,11
		c0-0.1,0-0.2-0.1-0.4c0-0.1-0.1-0.2-0.2-0.3c-0.1-0.1-0.2-0.2-0.3-0.2C54,10,53.9,9.9,53.7,9.9s-0.3,0-0.4,0.1
		c-0.1,0.1-0.2,0.1-0.3,0.2c-0.1,0.1-0.1,0.2-0.2,0.3c0,0.1-0.1,0.2-0.1,0.4h2V11z"/>
	<path class="st2" d="M57,7.5l1.5-0.2v1.5h1.8V10h-1.8v1.8c0,0.3,0.1,0.6,0.2,0.8c0.1,0.2,0.3,0.3,0.7,0.3c0.2,0,0.3,0,0.5,0
		s0.3-0.1,0.5-0.1l0.2,1.2c-0.2,0.1-0.4,0.1-0.6,0.2s-0.5,0.1-0.8,0.1c-0.4,0-0.7-0.1-1-0.2s-0.5-0.3-0.6-0.5s-0.3-0.4-0.3-0.7
		C57,12.6,57,12.3,57,12V7.5z"/>
</g>
<g>
	<g>
		<path class="st2" d="M74.7,6.5l2.9,7.9h-1.8l-0.6-1.7h-2.9l-0.6,1.7h-1.7l3-7.9H74.7z M74.8,11.4l-1-2.9h0l-1,2.9H74.8z"/>
		<path class="st2" d="M79.3,14.4l-1.9-5.7H79l1.2,3.9h0l1.2-3.9H83l-1.9,5.7H79.3z"/>
		<path class="st2" d="M83.6,10.5c0-0.4,0.1-0.7,0.3-0.9C84,9.3,84.2,9.1,84.5,9c0.2-0.1,0.5-0.3,0.8-0.3c0.3-0.1,0.6-0.1,0.9-0.1
			c0.3,0,0.6,0,0.9,0.1c0.3,0,0.6,0.1,0.8,0.2s0.4,0.3,0.6,0.5c0.2,0.2,0.2,0.5,0.2,0.8v3c0,0.3,0,0.5,0,0.7c0,0.2,0.1,0.4,0.2,0.5
			h-1.6c0-0.1-0.1-0.2-0.1-0.3s0-0.2,0-0.3c-0.2,0.3-0.5,0.4-0.9,0.5c-0.3,0.1-0.7,0.2-1,0.2c-0.3,0-0.5,0-0.8-0.1
			c-0.2-0.1-0.4-0.2-0.6-0.3c-0.2-0.1-0.3-0.3-0.4-0.5c-0.1-0.2-0.1-0.5-0.1-0.8c0-0.3,0.1-0.6,0.2-0.8s0.3-0.4,0.4-0.5
			c0.2-0.1,0.4-0.2,0.6-0.3c0.2-0.1,0.5-0.1,0.7-0.1c0.2,0,0.5-0.1,0.7-0.1c0.2,0,0.4-0.1,0.6-0.1s0.3-0.1,0.4-0.2
			c0.1-0.1,0.2-0.2,0.1-0.4c0-0.2,0-0.3-0.1-0.4c-0.1-0.1-0.1-0.2-0.2-0.2c-0.1-0.1-0.2-0.1-0.3-0.1c-0.1,0-0.3,0-0.4,0
			c-0.3,0-0.5,0.1-0.7,0.2c-0.2,0.1-0.3,0.4-0.3,0.7H83.6z M87.2,11.6c-0.1,0.1-0.1,0.1-0.2,0.1c-0.1,0-0.2,0.1-0.3,0.1
			c-0.1,0-0.2,0-0.4,0.1s-0.2,0-0.4,0.1c-0.1,0-0.2,0.1-0.3,0.1c-0.1,0-0.2,0.1-0.3,0.1s-0.2,0.1-0.2,0.2C85,12.5,85,12.6,85,12.8
			c0,0.1,0,0.3,0.1,0.4c0.1,0.1,0.1,0.2,0.2,0.2c0.1,0.1,0.2,0.1,0.3,0.1c0.1,0,0.2,0,0.4,0c0.3,0,0.5-0.1,0.7-0.2s0.3-0.2,0.4-0.4
			c0.1-0.1,0.1-0.3,0.1-0.4s0-0.3,0-0.4V11.6z"/>
		<path class="st2" d="M90,7.8V6.5h1.6v1.3H90z M91.6,8.7v5.7H90V8.7H91.6z"/>
		<path class="st2" d="M94.4,6.5v7.9h-1.6V6.5H94.4z"/>
		<path class="st2" d="M95.6,10.5c0-0.4,0.1-0.7,0.3-0.9C96,9.3,96.2,9.1,96.5,9c0.2-0.1,0.5-0.3,0.8-0.3c0.3-0.1,0.6-0.1,0.9-0.1
			c0.3,0,0.6,0,0.9,0.1c0.3,0,0.6,0.1,0.8,0.2s0.4,0.3,0.6,0.5c0.2,0.2,0.2,0.5,0.2,0.8v3c0,0.3,0,0.5,0,0.7c0,0.2,0.1,0.4,0.2,0.5
			h-1.6c0-0.1-0.1-0.2-0.1-0.3s0-0.2,0-0.3c-0.2,0.3-0.5,0.4-0.9,0.5c-0.3,0.1-0.7,0.2-1,0.2c-0.3,0-0.5,0-0.8-0.1
			c-0.2-0.1-0.4-0.2-0.6-0.3c-0.2-0.1-0.3-0.3-0.4-0.5c-0.1-0.2-0.1-0.5-0.1-0.8c0-0.3,0.1-0.6,0.2-0.8s0.3-0.4,0.4-0.5
			c0.2-0.1,0.4-0.2,0.6-0.3c0.2-0.1,0.5-0.1,0.7-0.1c0.2,0,0.5-0.1,0.7-0.1c0.2,0,0.4-0.1,0.6-0.1s0.3-0.1,0.4-0.2
			c0.1-0.1,0.2-0.2,0.1-0.4c0-0.2,0-0.3-0.1-0.4C99,9.9,99,9.8,98.9,9.7c-0.1-0.1-0.2-0.1-0.3-0.1c-0.1,0-0.3,0-0.4,0
			c-0.3,0-0.5,0.1-0.7,0.2c-0.2,0.1-0.3,0.4-0.3,0.7H95.6z M99.2,11.6c-0.1,0.1-0.1,0.1-0.2,0.1c-0.1,0-0.2,0.1-0.3,0.1
			c-0.1,0-0.2,0-0.4,0.1s-0.2,0-0.4,0.1c-0.1,0-0.2,0.1-0.3,0.1c-0.1,0-0.2,0.1-0.3,0.1s-0.2,0.1-0.2,0.2C97,12.5,97,12.6,97,12.8
			c0,0.1,0,0.3,0.1,0.4c0.1,0.1,0.1,0.2,0.2,0.2c0.1,0.1,0.2,0.1,0.3,0.1c0.1,0,0.2,0,0.4,0c0.3,0,0.5-0.1,0.7-0.2s0.3-0.2,0.4-0.4
			c0.1-0.1,0.1-0.3,0.1-0.4s0-0.3,0-0.4V11.6z"/>
		<path class="st2" d="M103.5,6.5v2.9h0c0.2-0.3,0.4-0.5,0.8-0.6c0.3-0.1,0.7-0.2,1-0.2c0.3,0,0.6,0.1,0.8,0.2
			c0.3,0.1,0.5,0.3,0.8,0.5s0.4,0.6,0.5,0.9c0.1,0.4,0.2,0.8,0.2,1.3c0,0.5-0.1,1-0.2,1.3c-0.1,0.4-0.3,0.7-0.5,0.9
			s-0.5,0.4-0.8,0.5c-0.3,0.1-0.6,0.2-0.8,0.2c-0.4,0-0.8-0.1-1.1-0.2s-0.6-0.4-0.7-0.7h0v0.7H102V6.5H103.5z M106,10.9
			c-0.1-0.2-0.1-0.4-0.2-0.6c-0.1-0.2-0.2-0.3-0.4-0.4c-0.2-0.1-0.4-0.1-0.6-0.1c-0.2,0-0.4,0-0.6,0.1c-0.2,0.1-0.3,0.2-0.4,0.4
			s-0.2,0.4-0.2,0.6c-0.1,0.2-0.1,0.5-0.1,0.7c0,0.2,0,0.5,0.1,0.7c0.1,0.2,0.1,0.4,0.2,0.6c0.1,0.2,0.2,0.3,0.4,0.4
			c0.2,0.1,0.4,0.1,0.6,0.1c0.2,0,0.4,0,0.6-0.1c0.2-0.1,0.3-0.2,0.4-0.4c0.1-0.2,0.2-0.4,0.2-0.6c0.1-0.2,0.1-0.4,0.1-0.7
			C106.1,11.3,106.1,11.1,106,10.9z"/>
		<path class="st2" d="M110.3,6.5v7.9h-1.6V6.5H110.3z"/>
		<path class="st2" d="M113.2,13c0.2,0.2,0.6,0.3,1,0.3c0.3,0,0.6-0.1,0.8-0.2c0.2-0.2,0.4-0.3,0.4-0.5h1.4c-0.2,0.7-0.6,1.2-1,1.5
			c-0.5,0.3-1,0.4-1.7,0.4c-0.4,0-0.9-0.1-1.2-0.2c-0.4-0.1-0.7-0.3-0.9-0.6c-0.2-0.3-0.4-0.6-0.6-0.9c-0.1-0.4-0.2-0.8-0.2-1.2
			c0-0.4,0.1-0.8,0.2-1.2c0.1-0.4,0.3-0.7,0.6-1s0.6-0.5,0.9-0.6c0.4-0.2,0.8-0.2,1.2-0.2c0.5,0,0.9,0.1,1.3,0.3s0.7,0.4,0.9,0.8
			c0.2,0.3,0.4,0.7,0.5,1.1s0.1,0.8,0.1,1.3h-4.1C112.8,12.4,113,12.8,113.2,13z M115,10c-0.2-0.2-0.5-0.3-0.9-0.3
			c-0.2,0-0.5,0-0.6,0.1c-0.2,0.1-0.3,0.2-0.4,0.3c-0.1,0.1-0.2,0.3-0.2,0.4c0,0.1-0.1,0.3-0.1,0.4h2.5
			C115.3,10.5,115.1,10.2,115,10z"/>
	</g>
</g>
</svg>
